<svg height="132" viewBox="0 0 512 132" width="512" xmlns="http://www.w3.org/2000/svg"><path d="m120.438206 71.340723 9.711992 9.730275c.767891.7715475 1.203029 1.8209984 1.203029 2.9106722v5.4739653c0 14.6667165-1.524812 19.9871035-4.387948 25.3513705-2.796065 5.297121-7.120057 9.631304-12.41058 12.439833-5.353297 2.863136-10.662714 4.391604-25.3001778 4.391604h-25.7024061c-.3318775-.001762-.6301992-.202752-.7564829-.509669-.1262837-.306918-.0557983-.659657.1787364-.894474v.003657l9.7083352-9.730275c.7678909-.771548 1.8136852-1.206686 2.903359-1.206686h11.8803695c10.9771836 0 14.9555897-1.144523 18.9705627-3.298274 3.968271-2.105664 7.211889-5.355652 9.309763-9.328047 2.110664-3.955247 3.252532-7.8786734 3.290008-18.4701145l.000953-16.2824343c.001747-.3309455.201619-.6286292.507277-.7555209.305657-.1268917.657592-.0582874.89321.1741177zm-119.03771923-8.2310593 9.71564843 9.7302749c.7678909.7715476 1.2030291 1.8209985 1.2030291 2.9106723v11.9059659c0 11.0027798 1.1408665 14.9921562 3.2909611 19.0144422 2.096903 3.971865 5.33919 7.221796 9.3061066 9.328046 4.0149725 2.153751 7.9970355 3.298274 18.974219 3.298274h15.701541c.3332082-.00119.6342326.198718.7623904.506297.1281578.307578.0581401.662087-.1773307.897847l-9.7156484 9.730275c-.7678909.771547-1.8136852 1.206685-2.8997024 1.206685h-5.4629954c-14.6374636 0-19.9432242-1.528468-25.2965209-4.395261-5.2918779-2.807941-9.61720092-7.142183-12.41423649-12.439833-2.82337036-5.289763-4.34533406-10.536857-4.3870662-24.7456405l-.00088191-26.3666417c.00174656-.3309454.20161926-.6286291.50727663-.7555208s.65759221-.0582874.89321014.1741177zm192.10802523-26.4490648c3.828484 0 7.273024.7100925 10.333617 2.1288624 3.060594 1.4151133 5.667767 3.3640936 7.825175 5.8323144 2.199721 2.5517115 3.865812 5.5183473 4.899875 8.7247035 1.11527 3.3458104 1.671077 6.9475845 1.671077 10.7980089.030033 3.6742186-.569802 7.3264119-1.773462 10.798009-1.094649 3.1910451-2.774965 6.1498888-4.954725 8.7247035-2.113989 2.4653183-4.727681 4.45332-7.66794 5.8323144-3.069396 1.4357463-6.422307 2.1630644-9.81072 2.1281548-2.365836 0-4.450111-.2559636-6.260139-.7642343-1.674025-.4541766-3.285428-1.1137218-4.79749-1.9636068-1.275932-.7153463-2.465957-1.5741272-3.546925-2.5596364-.88644-.8101369-1.691109-1.7054378-2.402402-2.6729917-.172258-.0000116-.312466.1385659-.314469.310813v26.4154474c0 2.645542-2.144635 4.790177-4.790177 4.790177h-2.936269c-2.645541 0-4.790176-2.144635-4.790176-4.790177v-67.6329067c0-2.6437387 2.142781-4.7901766 4.790176-4.7901766h3.17395c2.168377 0 3.927213 1.7551792 3.927213 3.9272135v3.7151294c0 .117012.095072.2084275.208428.2084275 1.810028-3.1995455 4.241683-5.5215013 7.305933-6.9804941 3.097561-1.4614393 6.484547-2.2063262 9.90945-2.1800551zm-93.5912769 14.1079607 9.7119919 9.7412448c.767891.7715476 1.199372 1.8173419 1.199372 2.9106723v31.2056243c0 9.086709-7.349813 16.454805-16.4182388 16.454805h-10.3957804c-.3282341-.001593-.6241157-.198135-.7528393-.50008-.1287237-.301944-.0659255-.651511.1604663-.889436v-.003657l12.6519171-13.2698865c.8775896-.8775896 1.5138421-1.9014442 1.912414-2.9984312.3494819-.9292969.5278753-1.914177.5265538-2.9070156v-39.1624369c.0002925-.3325425.2007432-.6322109.5079889-.7594299.3072457-.1272189.6608652-.0569702.8961545.1780267zm-78.0030909 32.8364784h-.0036566l13.24429 12.68117c.873933.8775897 1.9014442 1.5138421 2.991118 1.9124141.8995293.3437226 1.8795044.5302104 2.903359.5302104h39.0746779c.3318775.0017624.6301993.2027525.7564829.5096698.1262837.3069173.0557984.6596561-.1787364.8944737l-9.7193051 9.733931c-.7678909.767891-1.8136852 1.20303-2.8997023 1.20303h-31.1398051c-4.3592376-.004847-8.5380067-1.741196-11.6170244-4.827072-3.0790177-3.085875-4.8060665-7.2684963-4.801225-11.6277339v-10.4177201c.001604-.3282341.1981459-.6241157.5000903-.7528393.3019444-.1287237.6515116-.0659256.8894368.1604663zm474.0848838-46.944221c3.203202 0 6.417374.6367419 9.653486 1.9092469 1.232282.4863309 2.687618 1.3529507 4.362352 2.5998592 1.102002.820122 1.798881 2.0738843 1.913596 3.4427707s-.363775 2.7211467-1.31391 3.7132414l-1.938011 2.0221127c-1.701866 1.7789026-4.47506 1.9781172-6.413717.4607346-.431583-.3453565-.8847-.6629052-1.356607-.9507221-1.476204-.9105315-3.17285-1.401067-4.907189-1.4187699-2.292703 0-4.347725.4387948-6.154097 1.3090712-1.76612.8398208-3.345379 2.0261302-4.643912 3.4884188-1.293159 1.4647327-2.28585 3.1693293-2.921642 5.0168873-.660956 1.8922047-.996027 3.8828494-.990945 5.8871637 0 2.0403959.329096 4.000346.990945 5.8908203.658192 1.8904744 1.634511 3.5652079 2.925299 5.0168874 1.297115 1.4632134 2.875123 2.6507603 4.640255 3.4920754 1.806372.8702763 3.861394 1.3090711 6.154097 1.3090711 1.94898 0 3.759009-.4205116 5.426429-1.2542218.340066-.1718613.705728-.4022286 1.096987-.6911018 1.993604-1.4675385 4.777021-1.174297 6.421031.6764753l1.901444 2.1354681c.911961 1.024354 1.314861 2.404546 1.097212 3.7586516-.21765 1.3541056-1.032767 2.5385219-2.219795 3.2254991-3.013829 1.7558914-6.31806 2.957205-9.755872 3.5469248-1.532125.252307-2.852166.3807783-3.967436.3807783-3.638913.0206885-7.249094-.6455203-10.640774-1.9640963-3.237256-1.2424353-6.185454-3.1353054-8.662541-5.5617242-2.485775-2.4771289-4.4535-5.4243664-5.788435-8.6698542-1.426083-3.3823766-2.139125-7.1450421-2.139125-11.2879965 0-4.1429543.713042-7.9056198 2.139125-11.2879965 1.334935-3.2454878 3.30266-6.1927252 5.788435-8.6698541 2.477087-2.4264189 5.425285-4.319289 8.662541-5.5617243 3.39168-1.3185759 7.001861-1.9847847 10.640774-1.9640962zm-176.44305.0004889c3.338497 0 6.644085.5996868 9.913106 1.7990593 1.184746.4351382 2.504787 1.2395953 3.96378 2.4133715 1.079193.8694247 1.728962 2.163625 1.781551 3.5484689.052589 1.384844-.497156 2.7245955-1.507305 3.6733623l-1.557721 1.466306c-1.683915 1.5841519-4.259023 1.7395198-6.121188.369319-2.541353-1.864878-4.804803-2.8009736-6.783036-2.8009736-1.671077 0-3.305588.4387948-4.907189 1.3090712-1.597944.873933-2.398745 2.2890463-2.398745 4.2526531 0 1.601601.658192 2.7644073 1.98189 3.4920753 1.323698.7240115 2.991118 1.3456375 5.009574 1.8539081 2.018456.5082707 4.190491 1.0348244 6.51976 1.5796613 2.332925.5484935 4.50496 1.3822037 6.523416 2.5084437s3.685876 2.6693351 5.009574 4.6365985c1.320041 1.9636068 1.98189 4.651225 1.98189 8.0701679 0 3.126413-.643566 5.7591819-1.930697 7.9056199-1.239775 2.0965925-2.955977 3.8716712-5.009574 5.1814353-2.130131 1.340206-4.477411 2.2991633-6.936615 2.8338832-2.53374.577674-5.124032.8707988-7.722789.873933-3.894304 0-7.477795-.5850597-10.750473-1.7442094-1.279818-.4570779-2.8156-1.3712338-4.607345-2.7461242-1.102211-.8451115-1.783346-2.1270183-1.866838-3.5134205-.083493-1.3864022.438877-2.7407873 1.4317-3.7120674l1.298101-1.2725049c1.791702-1.757432 4.636098-1.8340058 6.51976-.1755179.760577.6691621 1.41877 1.184746 1.974576 1.5467517 1.842939 1.2030291 4.088105 1.8027153 6.728187 1.8027153.906843 0 1.846595-.1096987 2.819257-.3290961.976319-.2193974 1.879505-.5814031 2.713215-1.0896738.83371-.5119272 1.513842-1.1445231 2.036739-1.9087574.51924-.7642343.782517-1.6527938.782517-2.6693351 0-1.8209985-.661849-3.1666359-1.985546-4.0369123-1.320041-.873933-2.991118-1.5833179-5.009574-2.1281548-2.15651-.5773771-4.330866-1.0859057-6.51976-1.524812-2.270579-.4526569-4.465621-1.2245535-6.519759-2.2927028-2.00457-1.0426023-3.724233-2.5589181-5.009575-4.4172011-1.320041-1.8904744-1.981889-4.5086167-1.981889-7.8507705 0-2.9070157.574089-5.4337424 1.718613-7.5801804 1.095554-2.082547 2.648168-3.8901808 4.541526-5.2874775 1.94695-1.4152761 4.142426-2.4522355 6.472223-3.0569372 2.414367-.6509585 4.90408-.9799756 7.404663-.9799756zm130.958311 1.3090718c2.647396 0 4.790177 2.1464379 4.790177 4.7901766v42.7678676c0 2.6455416-2.144635 4.7901767-4.790177 4.7901767h-2.936268c-2.645542 0-4.790177-2.1446351-4.790177-4.7901767v-42.7678676c0-2.6437387 2.142781-4.7901766 4.790177-4.7901766zm-41.221116-1.3090712c3.338497 0 6.154097.5814031 8.450457 1.7442093 2.232393 1.108173 4.151936 2.7574456 5.583664 4.79749 1.426083 2.0367392 2.449938 4.4172011 3.07522 7.1450421.62894 2.7278411.939753 5.6531399.939753 8.7758963v26.4008211c0 2.6455415-2.144636 4.7901767-4.790177 4.7901767h-2.939925c-2.645542 0-4.790177-2.1446352-4.790177-4.7901767v-24.8723525c0-1.5979445-.138952-3.1446962-.416855-4.6329419-.240136-1.3883549-.7361-2.7200183-1.46265-3.9272136-.68962-1.1201483-1.66029-2.040393-2.8156-2.6693351-1.184746-.6581922-2.713214-.9836317-4.592719-.9836317-1.945323 0-3.598117.3802889-4.954724 1.1445232-1.33527.7440988-2.478427 1.7895932-3.338498 3.0532805-.892616 1.3244282-1.530044 2.8039062-1.879504 4.3623518-.38155 1.6264312-.574187 3.2914515-.57409 4.9620379v23.566938c0 2.6455416-2.144635 4.7901781-4.790177 4.7901781h-2.939925c-2.645541 0-4.790176-2.1446365-4.790176-4.7901781v-26.4008211c0-3.272678-.658193-5.8725372-1.98189-7.7995778-1.323698-1.9233839-3.510359-2.8887325-6.574609-2.8887325-2.084276 0-3.843112.3656624-5.269195 1.0896738-1.426083.7313247-2.607172 1.7112998-3.546924 2.9472385-.955296 1.2677986-1.647754 2.7136296-2.03674 4.252653-.420788 1.6388523-.6297 3.324896-.621626 5.0168874v23.7826787c.000001 1.2710677-.505179 2.4900223-1.404302 3.3884599-.899124.8984376-2.118464 1.4026871-3.389531 1.4017182h-2.939925c-2.645542 0-4.790177-2.1446365-4.790177-4.7901781v-42.7678676c0-2.6437387 2.146438-4.7901766 4.790177-4.7901766h2.314642c2.643739 0 4.790177 2.1464379 4.790177 4.7901766v3.38969c1.370482-2.5722426 3.274092-4.8224168 5.583664-6.6002053 2.468221-1.9270406 5.788435-2.8887325 9.964299-2.8887325 7.86174 0 13.076085 3.2361117 15.650348 9.7046785 1.810029-3.3421538 4.069822-5.7957481 6.783037-7.3607829 2.713214-1.5613782 5.945669-2.3438956 9.704678-2.3438956zm-150.254313 0c.764234 0 1.513842.0731324 2.24151.2193974 1.304227.2582317 2.244314 1.4019522 2.245167 2.7314977v7.1816084c.0004.7749053-.342966 1.5100642-.937454 2.0071182-.594488.4970539-1.378839.7047853-2.141423.5671447-.980804-.1797347-1.975701-.2715148-2.972835-.2742468-2.925298 0-5.269194.56312-7.042656 1.68936-1.773463 1.1298967-3.13007 2.4170281-4.069822 3.8760209-.885435 1.3270099-1.522288 2.8039132-1.879505 4.3586951-.314469 1.4553361-.468048 2.5450099-.468048 3.272678v23.2378418c0 2.6455416-2.144635 4.7901767-4.790176 4.7901767h-2.939925c-2.645542 0-4.790177-2.1446351-4.790177-4.7901767v-42.7678676c0-2.6437387 2.142781-4.7901766 4.790177-4.7901766h3.58349c2.289047 0 4.146611 1.853908 4.146611 4.1429543v3.9381834c0 .1133553.091416.2084276.208428.2084276 1.389517-3.0569372 3.371407-5.419116 5.94567-7.0901929s5.532471-2.5084436 8.870968-2.5084436zm22.54674 1.3090712c2.643739 0 4.790177 2.1464379 4.790177 4.7901766v42.7678676c0 2.6455416-2.144635 4.7901767-4.790177 4.7901767h-2.939925c-2.645542 0-4.790177-2.1446351-4.790177-4.7901767v-42.7678676c0-2.6437387 2.142782-4.7901766 4.790177-4.7901766zm-234.2469531-17.4018709c.3282341.0015938.6241157.1981357.7528393.5000801.1287237.3019444.0659255.6515116-.1604663.8894368l-12.6555737 13.273543c-.8775896.8775896-1.5101855 1.9014442-1.9087574 2.9984312-.3507296.9290655-.5303631 1.9139528-.5302104 2.9070156v39.1624369c-.0032004.3302816-.2036084.6266314-.5089442.7525924-.3053358.1259609-.6564003.0571116-.8915426-.1748459l-9.7119918-9.7412448c-.768668-.7721507-1.1999525-1.8174896-1.1993731-2.9070156v-31.2056243c0-9.0867092 7.3498137-16.4548054 16.4182398-16.4548054zm143.6687341 27.8707837c-2.296359 0-4.351382.4387948-6.157754 1.3090712-1.766119.8398208-3.345378 2.0261302-4.643911 3.4884188-1.293159 1.4647327-2.285851 3.1693293-2.921642 5.0168873-.659713 1.8924202-.993546 3.8830591-.987375 5.8871637 0 2.0403959.329182 4.000346.987375 5.8908203.661848 1.8904744 1.63451 3.5652079 2.925298 5.0168874 1.298186 1.4636061 2.877469 2.6511772 4.643912 3.4920754 1.806372.8702763 3.857738 1.3090711 6.154097 1.3090711 2.29636 0 4.347726-.4387948 6.154097-1.3090711 1.766443-.8408982 3.345726-2.0284693 4.643912-3.4920754 1.287132-1.4516795 2.259794-3.126413 2.925299-5.0168874.658192-1.8904743.987288-3.8504244.987288-5.8871637 0-2.0367392-.329096-4.000346-.987288-5.8871637-.636454-1.8491446-1.630421-3.5550403-2.925299-5.0205439-1.298533-1.4622886-2.877792-2.648598-4.643912-3.4884188-1.806371-.873933-3.857737-1.3090712-6.154097-1.3090712zm-76.452682-44.04402914c5.290523 2.80852824 9.614515 7.14271174 12.41058 12.43983294 2.82337 5.2897628 4.345334 10.5368566 4.387066 24.7456406l.000882 26.3666416c0 .3325425-.200744.6322109-.507989.7594298-.307246.1272189-.660865.0569702-.896155-.1780267v-.0036566l-9.708335-9.7266183c-.770903-.7724505-1.203607-1.8193558-1.203029-2.9106723v-11.9059658c0-11.0027799-1.144523-14.9921561-3.290961-19.0144419-2.097874-3.9723944-5.341492-7.222383-9.309763-9.3280463-4.011316-2.1537512-7.9933791-3.2982743-18.9705627-3.2982743h-15.7051976c-.3318775-.0017624-.6301992-.2027525-.7564829-.5096698s-.0557983-.6596562.1787364-.8944736l9.7083352-9.73027497c.7678909-.77154754 1.8136852-1.20668573 2.903359-1.20668573h5.4593388c14.6374638 0 19.9468808 1.52846859 25.3001778 4.39526136zm-46.7535874-4.39526136c.3318775.0017624.6301992.20275249.7564829.50966979.1262837.30691731.0557983.65965614-.1787364.89447361l-9.7083352 9.7302749c-.7715476.7715476-1.8136853 1.2066858-2.903359 1.2066858h-11.8803695c-10.9771836 0-14.9592465 1.1445231-18.974219 3.2982743-3.9682709 2.1056633-7.2118895 5.3556519-9.3097632 9.3280463-2.146438 4.0222858-3.2909611 8.011662-3.2909611 19.0144419v15.7381072c-.0017466.3309454-.2016193.6286291-.5072767.7555208-.3056573.1268917-.6575922.0582874-.8932101-.1741177l-9.70467857-9.7302749c-.77224442-.7718522-1.20668573-1.8188312-1.20668573-2.9106723v-5.4739652c0-14.6667166 1.52481197-19.9871037 4.38794811-25.3513702 2.79606486-5.2971212 7.12005629-9.6313047 12.41057989-12.43983294 5.2789454-2.8269762 10.5152217-4.35254573 24.6921499-4.39437734zm26.6092486 20.5685068c9.0684258 0 16.4182388 7.3680962 16.4182388 16.4548054v10.4177201c-.001593.3282342-.198135.6241157-.50008.7528394-.301944.1287236-.651511.0659255-.889436-.1604664l-13.2369773-12.68117c-.8775896-.8775896-1.9014442-1.5138421-2.9947746-1.9124141-.9276113-.3513911-1.9114226-.5310544-2.903359-.5302104h-39.0746779c-.3325425-.0002925-.6322109-.2007432-.7594298-.5079889-.127219-.3072457-.0569702-.6608652.1780267-.8961545l9.7229617-9.7339315c.7678909-.7678909 1.8100286-1.2030291 2.8997023-1.2030291zm185.5992348-8.2274027c2.29636 0 4.227057.7459511 5.792092 2.2341969 1.565035 1.4919023 2.347552 3.3640935 2.347552 5.6165736 0 2.2561366-.782517 4.1283278-2.347552 5.6165735-1.565035 1.4919024-3.495732 2.2378536-5.792092 2.2378536-2.292702 0-4.19049-.7825174-5.686049-2.3438956-1.454441-1.4629023-2.261814-3.4477495-2.24151-5.5105315 0-2.1062151.745951-3.9418401 2.24151-5.5068749 1.499216-1.5613782 3.393347-2.3438956 5.686049-2.3438956zm168.932346 0c2.29636 0 4.227057.7459511 5.792092 2.2341969 1.565034 1.4919023 2.347552 3.3640935 2.347552 5.6165736 0 2.2561366-.782518 4.1283278-2.347552 5.6165735-1.565035 1.4919024-3.495732 2.2378536-5.792092 2.2378536-2.296359 0-4.19049-.7825174-5.686049-2.3438956-1.455781-1.4623003-2.264502-3.4472219-2.245167-5.5105315 0-2.1062151.749608-3.9418401 2.245167-5.5068749 1.495559-1.5613782 3.38969-2.3438956 5.686049-2.3438956z" fill="#ffffff" fill-rule="evenodd"/></svg>